<svg width="650" height="649" xmlns="http://www.w3.org/2000/svg" overflow="hidden"><defs><clipPath id="clip0"><path d="M1550 1302h650v649h-650z"/></clipPath></defs><g clip-path="url('#clip0')" transform="translate(-1550 -1302)"><path d="M1907.302 1340.851a577.857 577.857 0 0 0-7.041-10.156 245.528 245.528 0 0 0-5.246-7.136c-1.49-1.94-2.744-3.476-3.821-4.706-1.08-1.231-1.98-2.155-2.769-2.87a15.765 15.765 0 0 0-2.085-1.629 16.225 16.225 0 0 0-1.774-.978 86.343 86.343 0 0 0-7.394-.382 80.443 80.443 0 0 0-10.824.636 77.54 77.54 0 0 0-3.536.536 75.82 75.82 0 0 0-6.967 1.552 78.506 78.506 0 0 0-6.825 2.198 79.993 79.993 0 0 0-6.68 2.844 81.623 81.623 0 0 0-3.288 1.663 89.689 89.689 0 0 0-6.469 3.81 92.084 92.084 0 0 0-3.18 2.147 846.803 846.803 0 0 1-6.117 10.9 844.203 844.203 0 0 1-6.267 10.784 803.915 803.915 0 0 1-6.419 10.666 772.06 772.06 0 0 1-6.57 10.55 789.899 789.899 0 0 1-6.72 10.433 792.316 792.316 0 0 1-13.895 20.517 805.412 805.412 0 0 1-21.977 29.9 793.403 793.403 0 0 1-7.628 9.734 818.207 818.207 0 0 1-7.778 9.617 800.943 800.943 0 0 1-32.628 37.297c1.699.286 3.39.526 5.072.724 1.682.198 3.356.351 5.02.462a94.56 94.56 0 0 0 9.884.142 88.682 88.682 0 0 0 14.435-1.747 88.311 88.311 0 0 0 9.361-2.47 92.236 92.236 0 0 0 9.154-3.516 95.138 95.138 0 0 0 4.499-2.15 99.437 99.437 0 0 0 4.446-2.41 104.466 104.466 0 0 0 4.394-2.672 113.25 113.25 0 0 0 4.342-2.933 118.84 118.84 0 0 0 4.289-3.194l2.382-2.37 2.383-2.372 2.353-2.391 2.353-2.391 2.325-2.413 2.325-2.413 2.295-2.432 2.295-2.434 2.268-2.454 2.266-2.454 2.238-2.475 2.238-2.475 2.21-2.496 2.208-2.496 2.18-2.517 2.18-2.517.223-.003.222-.003.222-.004.222-.004.222-.003.222-.003.221-.003.223-.004.221-.003.223-.004.222-.003.222-.004.222-.003.222-.004.222-.003.222-.003a214.507 214.507 0 0 1-.875 10.073 217.602 217.602 0 0 1-1.343 10.006c-.262 1.662-.544 3.32-.847 4.977-.3 1.657-.622 3.31-.963 4.961a216.776 216.776 0 0 1-3.591 14.78 224.299 224.299 0 0 1-6.424 19.473 240.081 240.081 0 0 1-1.898 4.827 240.297 240.297 0 0 1-4.147 9.602 379.241 379.241 0 0 1-8.332 18.694 353.602 353.602 0 0 1-9.134 17.788 333.44 333.44 0 0 1-9.941 16.883 315.439 315.439 0 0 1-10.745 15.978 303.416 303.416 0 0 1-11.551 15.073 294.107 294.107 0 0 1-12.355 14.167 287.392 287.392 0 0 1-41.893 37.069 294.812 294.812 0 0 1-15.577 10.546 304.001 304.001 0 0 1-16.378 9.64 317.114 317.114 0 0 1-17.185 8.735 334.15 334.15 0 0 1-17.99 7.83 355.739 355.739 0 0 1-18.794 6.925 381.595 381.595 0 0 1-19.599 6.019 412.815 412.815 0 0 1-20.403 5.113 12.857 12.857 0 0 0-.552 1.648 10.33 10.33 0 0 0-.277 1.567 8.065 8.065 0 0 0-.004 1.49 7.15 7.15 0 0 0 .273 1.409 6.904 6.904 0 0 0 .547 1.33 7.848 7.848 0 0 0 .82 1.251c.16.203.33.402.512.598.184.194.378.386.583.576a12.88 12.88 0 0 0 1.37 1.092 131.138 131.138 0 0 0 15.575 3.187 126.689 126.689 0 0 0 10.412 1.031 124.6 124.6 0 0 0 15.662-.092 127.858 127.858 0 0 0 10.471-1.155 131.976 131.976 0 0 0 10.494-2.029c1.75-.41 3.503-.859 5.256-1.343a145.982 145.982 0 0 0 10.528-3.34c1.757-.63 3.514-1.296 5.274-2a425.318 425.318 0 0 0 11.819-4.624 416.962 416.962 0 0 0 11.59-4.941c3.825-1.7 7.614-3.454 11.364-5.26a397.98 397.98 0 0 0 22.043-11.47 392.886 392.886 0 0 0 21.134-12.74 387.115 387.115 0 0 0 29.991-21.49 388.923 388.923 0 0 0 18.857-15.912 401.268 401.268 0 0 0 17.945-17.182 408.352 408.352 0 0 0 8.633-9.069 416.429 416.429 0 0 0 8.402-9.384 296.674 296.674 0 0 0 11.772-17.155 285.742 285.742 0 0 0 7.91-13.226 281.87 281.87 0 0 0 4.835-8.988 274.884 274.884 0 0 0 12.406-27.786 273.223 273.223 0 0 0 1.76-4.751l1.496-5.844 1.494-5.843 1.496-5.844 1.494-5.844 1.45-5.84 1.45-5.84 1.449-5.841 1.45-5.84 1.404-5.838 1.404-5.838 1.404-5.837 1.404-5.837 1.358-5.835 1.359-5.834 1.359-5.834 1.358-5.834 1.04 1.097 1.04 1.098 1.015 1.118 1.015 1.117.99 1.135.99 1.137.966 1.156.966 1.155.94 1.175.941 1.175.916 1.194.916 1.194.892 1.214.891 1.213.868 1.232.866 1.233a28.856 28.856 0 0 0 2.537 1.665 26.303 26.303 0 0 0 2.628 1.336 24.956 24.956 0 0 0 2.722 1.008 24.821 24.821 0 0 0 5.723 1.026 26.625 26.625 0 0 0 3 .02 31.44 31.44 0 0 0 3.094-.31 33.695 33.695 0 0 0 3.187-.64 83.843 83.843 0 0 0 5.016-.94 83.327 83.327 0 0 0 4.929-1.244 81.635 81.635 0 0 0 6.438-2.13 84.155 84.155 0 0 0 9.365-4.208l-3.351-6.54-3.35-6.54-3.246-6.58-3.244-6.577-3.139-6.616-3.139-6.616-3.033-6.654-3.033-6.654-2.927-6.691-2.927-6.691-2.82-6.73-2.822-6.73-2.715-6.766-2.715-6.768-2.61-6.804s2.548 3.698-.139-.256Z" fill="#777" fill-rule="evenodd"/></g></svg>